{"title":"CELLULAR.DVDRip(HINDI dubbed).aaaevilacharya","uid":5852029,"size":711572110,"categoryP":"video","categoryS":"movies","magnet":"?xt=urn:btih:43a8d68b931b3450c6f83b484029787a49951a2b&amp;dn=CELLULAR.DVDRip%28HINDI+dubbed%29.aaaevilacharya&amp;tr=udp%3A%2F%2Ftracker.openbittorrent.com%3A80&amp;tr=udp%3A%2F%2Fopen.demonii.com%3A1337&amp;tr=udp%3A%2F%2Ftracker.coppersurfer.tk%3A6969&amp;tr=udp%3A%2F%2Fexodus.desync.com%3A6969","seeders":0,"leechers":2,"uploader":"achaevil","files":1,"time":1285425294,"description":"General\nComplete name : CELLULAR.DVDRip(HINDI dubbed).aaaevilacharya\nFormat : Matroska\nFile size : 679 MiB\nDuration : 1h 33mn\nOverall bit rate : 1 010 Kbps\nEncoded date : UTC 2010-09-25 22:06:35\nWriting library : libebml v0.7.7 + libmatroska v0.8.1\n\nVideo\nID : 1\nFormat : MPEG-4 Visual\nFormat profile : Simple@L1\nFormat settings, BVOP : No\nFormat settings, QPel : No\nFormat settings, GMC : No warppoints\nFormat settings, Matrix : Default (H.263)\nCodec ID : DX50\nCodec ID/Hint : DivX 5\nDuration : 1h 33mn\nBit rate : 877 Kbps\nWidth : 720 pixels\nHeight : 292 pixels\nDisplay aspect ratio : 2.466\nFrame rate : 23.976 fps\nColor space : YUV\nChroma subsampling : 4:2:0\nBit depth : 8 bits\nScan type : Interlaced\nScan order : Top Field First\nBits/(Pixel*Frame) : 0.174\nStream size : 590 MiB (87%)\nTitle : CELLULAR.DVDRip(HINDI dubbed).aaaevilacharya\nWriting library : Lavc52.30.1\nLanguage : Hindi\n\nAudio\nID : 2\nFormat : MPEG Audio\nFormat version : Version 1\nFormat profile : Layer 3\nMode : Joint stereo\nCodec ID : A_MPEG/L3\nCodec ID/Hint : MP3\nDuration : 1h 33mn\nBit rate mode : Constant\nBit rate : 112 Kbps\nChannel(s) : 2 channels\nSampling rate : 44.1 KHz\nStream size : 75.3 MiB (11%)\nTitle : evil hindi\nWriting library : LAME3.98.2\nLanguage : Hindi\n","torrent":{"xt":"urn:btih:43a8d68b931b3450c6f83b484029787a49951a2b","amp;dn":"CELLULAR.DVDRip%28HINDI+dubbed%29.aaaevilacharya","amp;tr":["udp%3A%2F%2Ftracker.openbittorrent.com%3A80","udp%3A%2F%2Fopen.demonii.com%3A1337","udp%3A%2F%2Ftracker.coppersurfer.tk%3A6969","udp%3A%2F%2Fexodus.desync.com%3A6969"],"infoHash":"43a8d68b931b3450c6f83b484029787a49951a2b","infoHashBuffer":{"type":"Buffer","data":[67,168,214,139,147,27,52,80,198,248,59,72,64,41,120,122,73,149,26,43]},"announce":[],"urlList":[]}}